<?xml version="1.0" encoding="UTF-8"?>
<svg xmlns="http://www.w3.org/2000/svg" xmlns:xlink="http://www.w3.org/1999/xlink" width="1440pt" height="720pt" viewBox="0 0 1440 720" version="1.1">
<defs>
<clipPath id="clip1">
  <path d="M 59.039063 59.039063 L 1409.757813 59.039063 L 1409.757813 646.558594 L 59.039063 646.558594 Z M 59.039063 59.039063 "/>
</clipPath>
</defs>
<g id="surface11">
<rect x="0" y="0" width="1440" height="720" style="fill:rgb(100%,100%,100%);fill-opacity:1;stroke:none;"/>
<g clip-path="url(#clip1)" clip-rule="nonzero">
<path style="fill-rule:nonzero;fill:rgb(100%,100%,100%);fill-opacity:1;stroke-width:0.75;stroke-linecap:round;stroke-linejoin:round;stroke:rgb(100%,100%,100%);stroke-opacity:1;stroke-miterlimit:10;" d="M 59.039063 646.558594 L 1409.757813 646.558594 L 1409.757813 59.039063 L 59.039063 59.039063 Z M 59.039063 646.558594 "/>
</g>
<path style="fill:none;stroke-width:1.125;stroke-linecap:round;stroke-linejoin:round;stroke:rgb(0%,0%,0%);stroke-opacity:1;stroke-miterlimit:10;" d="M 683.214844 364.691406 L 680.667969 360.886719 L 679.882813 355.546875 L 675.886719 354.910156 L 669.972656 360.289063 L 674.582031 363.519531 L 674.484375 366.863281 L 668.09375 370.417969 L 663.976563 372.175781 L 660.039063 373.25 L 660.214844 379.304688 L 665.722656 383.167969 L 670.125 385.722656 L 672.960938 387.742188 L 671.792969 388.691406 L 672.644531 391.761719 L 667.871094 391.769531 L 665.054688 390.96875 L 660.621094 392.261719 L 659.832031 396.320313 L 657.410156 401.664063 L 657.417969 402.679688 L 659.578125 406.378906 L 639.273438 409.082031 L 628.355469 404.726563 L 618.105469 405.160156 L 610.046875 401.34375 L 599.84375 401.792969 L 585.453125 408.152344 L 585.9375 401.554688 L 583.894531 393.753906 L 583.632813 386.222656 L 577.425781 376.679688 L 577.503906 376.277344 L 575.238281 376.214844 L 575.140625 376.285156 L 573.214844 376.457031 L 573 376.117188 L 567.691406 369.835938 L 558.132813 369.425781 L 552.320313 361.480469 L 541.410156 359.664063 L 524.089844 357.949219 L 518.515625 365.683594 L 507.820313 365.421875 L 499.855469 369.304688 L 480.667969 364.105469 L 480.972656 359.574219 L 470.40625 357.855469 L 465.398438 361.992188 L 464.449219 357.09375 L 461.429688 357.640625 L 460.335938 349.8125 L 457.378906 350.492188 L 457.371094 345.996094 L 453.367188 343.769531 L 447.835938 351.65625 L 445.59375 368.0625 L 441.714844 371.339844 L 431.046875 369.953125 L 434.265625 357.207031 L 430.351563 354.890625 L 432.8125 349.386719 L 428.382813 342.945313 L 426.070313 349.355469 L 418.441406 350.320313 L 416.140625 355.414063 L 402.136719 357.46875 L 398.871094 362.132813 L 386.570313 359.238281 L 367.492188 364.882813 L 364.296875 357.742188 L 359.058594 355.554688 L 366.980469 352.25 L 371.097656 343.730469 L 368.972656 336.585938 L 379.585938 321.550781 L 377.921875 311.664063 L 387.253906 289.394531 L 391.824219 283.921875 L 396.707031 281.679688 L 392.75 263.816406 L 395.84375 256.664063 L 405.003906 252.535156 L 413.90625 241.941406 L 414.207031 241.554688 L 419.472656 236.230469 L 428.253906 230.195313 L 430.480469 217.21875 L 430.160156 212.695313 L 440.070313 200.589844 L 446.367188 202.351563 L 448.511719 210.257813 L 455.527344 210.375 L 457.679688 203.6875 L 459.957031 208.226563 L 468.15625 207.632813 L 471.261719 207.109375 L 477.941406 197.351563 L 483.742188 188.113281 L 504.851563 179.425781 L 513.671875 180.722656 L 517.046875 181.066406 L 518.851563 181.804688 L 523.027344 186.671875 L 524.539063 188.277344 L 532.828125 190.308594 L 538.015625 189.90625 L 542.6875 191.121094 L 542.714844 191.144531 L 548.707031 197.78125 L 555.910156 192.847656 L 570.101563 190.542969 L 573.945313 185.230469 L 599.414063 177.089844 L 603 176.925781 L 622.984375 187.753906 L 640.804688 179.183594 L 657.160156 181.6875 L 673.320313 183.449219 L 673.742188 170.6875 L 680.382813 172.789063 L 679.953125 175.5625 L 682.867188 173.105469 L 696.621094 177.210938 L 706.863281 169.578125 L 711.230469 199.371094 L 717.457031 203.863281 L 712.730469 208.855469 L 713.296875 216.195313 L 719.597656 216.289063 L 718.089844 224.152344 L 716.230469 226.273438 L 713.285156 236.242188 L 719.191406 237.855469 L 719.664063 241.320313 L 719.410156 259.867188 L 710.878906 265.453125 L 712.921875 272.152344 L 704.933594 271.871094 L 697.078125 277.992188 L 692.523438 275.898438 L 687.140625 287.261719 L 693.972656 290.28125 L 699.84375 290.808594 L 704.554688 286.472656 L 721.3125 291.816406 L 729.667969 293.148438 L 731.171875 289.757813 L 740.761719 293.570313 L 745.140625 300.671875 L 754.265625 282.089844 L 759.386719 282.382813 L 762.027344 277.355469 L 764.886719 281.453125 L 759.609375 289.035156 L 765.367188 303.292969 L 747.5625 350.007813 L 745.765625 358.542969 L 741.140625 358.5 L 741.980469 360.890625 L 742.339844 363.597656 L 733.851563 365.082031 L 727.046875 363.296875 L 725.058594 356.550781 L 714.539063 348.339844 L 711.871094 344.417969 L 703.035156 343.03125 L 702.40625 343.132813 L 700.191406 344.992188 L 699.265625 344.523438 L 698.195313 349.363281 L 698.164063 350.265625 L 690.035156 356.8125 L 691.054688 364.292969 Z M 683.214844 364.691406 "/>
<path style="fill:none;stroke-width:1.125;stroke-linecap:round;stroke-linejoin:round;stroke:rgb(0%,0%,0%);stroke-opacity:1;stroke-miterlimit:10;" d="M 419.351563 577.136719 L 410.292969 572.851563 L 399.535156 568.1875 L 378.59375 554.914063 L 381.910156 544.527344 L 385.09375 547.359375 L 379.523438 554.839844 L 387.378906 552.96875 L 390.617188 543.230469 L 395.867188 542.859375 L 402.175781 526.867188 L 412.785156 520.640625 L 419.421875 524.019531 L 434.320313 531.710938 L 441.851563 525.023438 L 449.429688 524.890625 L 449.722656 518.503906 L 457.6875 513.214844 L 455.859375 507.027344 L 461.375 497.476563 L 462.871094 493.375 L 460.019531 493.460938 L 460.585938 490 L 458.902344 493.398438 L 459.609375 489.226563 L 455.300781 495.816406 L 451.21875 513.507813 L 435.953125 524.996094 L 425.40625 522.171875 L 425.722656 518.214844 L 431.191406 517.660156 L 418.839844 516.480469 L 414.714844 509.453125 L 429.378906 496.394531 L 421.597656 496.488281 L 424.027344 482.417969 L 417.832031 483.796875 L 416.332031 480.550781 L 415.566406 488.890625 L 411.640625 490.929688 L 418.0625 497.773438 L 413.714844 501.40625 L 409.863281 516.605469 L 397.539063 508.132813 L 393.890625 495.425781 L 397.949219 488.183594 L 396.566406 484.492188 L 394.179688 483.179688 L 393.433594 483.078125 L 393.183594 483.101563 L 393.0625 483.246094 L 392.742188 484.488281 L 384.863281 484.539063 L 381.839844 481.664063 L 379.292969 483.84375 L 381.953125 496.851563 L 382.273438 497.269531 L 385.53125 510.109375 L 383.214844 526.722656 L 375.460938 523.433594 L 367.125 514.078125 L 358.703125 512.007813 L 361.753906 509 L 360.042969 495.824219 L 361.734375 492.984375 L 365.089844 495.003906 L 371.175781 492.09375 L 364.519531 493.734375 L 362.167969 492.085938 L 366.128906 478.519531 L 366.269531 478.539063 L 366.972656 478.621094 L 367.375 478.4375 L 367.914063 478.195313 L 366.824219 475.59375 L 366.753906 475.117188 L 366.492188 474.351563 L 365.019531 470.082031 L 366.265625 465.570313 L 371.082031 452.332031 L 361.753906 440.40625 L 361.691406 440.261719 L 347.089844 419.664063 L 353.226563 403.191406 L 361.144531 385.101563 L 373.035156 378.480469 L 370.039063 373.082031 L 370.003906 372.664063 L 367.492188 364.882813 L 386.570313 359.238281 L 398.871094 362.132813 L 402.136719 357.46875 L 416.140625 355.414063 L 418.441406 350.320313 L 426.070313 349.355469 L 428.382813 342.945313 L 432.8125 349.386719 L 430.351563 354.890625 L 434.265625 357.207031 L 431.046875 369.953125 L 441.714844 371.339844 L 445.59375 368.0625 L 447.835938 351.65625 L 453.367188 343.769531 L 457.371094 345.996094 L 457.378906 350.492188 L 460.335938 349.8125 L 461.429688 357.640625 L 464.449219 357.09375 L 465.398438 361.992188 L 470.40625 357.855469 L 480.972656 359.574219 L 480.667969 364.105469 L 499.855469 369.304688 L 507.820313 365.421875 L 518.515625 365.683594 L 524.089844 357.949219 L 541.410156 359.664063 L 552.320313 361.480469 L 558.132813 369.425781 L 567.691406 369.835938 L 573 376.117188 L 573.214844 376.457031 L 575.140625 376.285156 L 575.238281 376.214844 L 577.503906 376.277344 L 577.425781 376.679688 L 583.632813 386.222656 L 583.894531 393.753906 L 585.9375 401.554688 L 581.015625 401.199219 L 578.832031 405.214844 L 578.566406 418.277344 L 578.550781 419.359375 L 578.496094 423.457031 L 584.996094 425.609375 L 581.734375 433.507813 L 584.421875 448.90625 L 563.679688 452.421875 L 556.921875 463.730469 L 550.871094 474.542969 L 551.96875 487.394531 L 554.429688 493.074219 L 556.539063 504.9375 L 553.996094 515.125 L 550.023438 514.800781 L 548.886719 514.773438 L 544.949219 515.003906 L 536.960938 520.550781 L 536.660156 520.351563 L 535.90625 520.660156 L 531.179688 524.417969 L 519.335938 519.261719 L 519.929688 528.105469 L 515.753906 534.371094 L 519.363281 538.546875 L 503.605469 542.273438 L 507.863281 552.96875 L 502.871094 550.765625 L 500.589844 559.226563 L 497.003906 558.230469 L 497.410156 564.050781 L 494.023438 565.398438 L 497.242188 565.144531 L 498.007813 569.792969 L 483.089844 569.523438 L 486.136719 571.917969 L 480.019531 579.714844 L 479.882813 579.78125 L 479.054688 580.039063 L 489.917969 577.902344 L 498.417969 591.132813 L 504.828125 583.300781 L 488.960938 614.019531 L 484.53125 619.277344 L 480.199219 624.800781 L 473.46875 624.488281 L 465.382813 615.792969 L 456.578125 606.296875 L 453.527344 603.632813 L 452.246094 602.566406 L 434.640625 587.03125 Z M 385.523438 532.503906 L 384.410156 532.207031 L 382.476563 529.613281 L 384.78125 532.046875 L 385.957031 529 Z M 400.992188 517.445313 L 400.300781 517.503906 L 404.535156 515.769531 Z M 400.992188 517.445313 "/>
<path style="fill:none;stroke-width:1.125;stroke-linecap:round;stroke-linejoin:round;stroke:rgb(0%,0%,0%);stroke-opacity:1;stroke-miterlimit:10;" d="M 895.050781 441.203125 L 902.335938 447.566406 L 902.078125 449.152344 L 902.019531 449.402344 L 897.902344 452.566406 L 895.195313 452.164063 L 894.808594 444.175781 L 889.917969 443.066406 L 887.109375 443.488281 L 888.929688 454.375 L 873.871094 453.035156 L 855.527344 451.496094 L 856.066406 449.589844 L 855.207031 449.691406 L 821.871094 453.671875 L 805.4375 439.417969 L 806.265625 437.324219 L 805.601563 423.414063 L 805.980469 422.300781 L 802.234375 423.203125 L 800.804688 423.558594 L 793.484375 425.839844 L 790.933594 423.203125 L 789.285156 421.988281 L 788.488281 423.609375 L 787.863281 422.996094 L 786.953125 421.074219 L 786.789063 417.480469 L 783.703125 416.296875 L 778.132813 422.503906 L 777.9375 422.742188 L 770.398438 432.285156 L 770.304688 432.242188 L 767.902344 433.207031 L 769 424.65625 L 759.023438 425.078125 L 757.699219 422.25 L 756.914063 416.546875 L 754.054688 417.011719 L 753.621094 421.992188 L 753.054688 423.148438 L 747.167969 435.734375 L 741.023438 433.042969 L 738.128906 422.046875 L 738.054688 421.785156 L 738.265625 413.726563 L 735.097656 412.15625 L 730.226563 421.460938 L 730.046875 421.863281 L 727.894531 427.832031 L 724.585938 426.890625 L 718.875 426.5 L 719.257813 421.847656 L 719.515625 420.015625 L 719.886719 415.105469 L 714.675781 415.058594 L 714.039063 409.277344 L 706.269531 417.261719 L 706.871094 421.152344 L 706.894531 421.269531 L 707.917969 426.230469 L 705.492188 421.296875 L 705.449219 421.0625 L 700.84375 408.3125 L 690.492188 420.539063 L 689.242188 421.730469 L 686.273438 420.789063 L 686.054688 420.71875 L 685.875 420.664063 L 685.730469 421.160156 L 678.152344 430.960938 L 671.75 425.003906 L 664.253906 427.257813 L 666.898438 430.933594 L 658.113281 430.230469 L 653.824219 423.148438 L 663.273438 416.820313 L 664.285156 420.398438 L 666.660156 420.386719 L 667.214844 412.59375 L 667.164063 410.390625 L 665.226563 408.570313 L 661.867188 409.691406 L 660.527344 408.195313 L 659.578125 406.378906 L 657.417969 402.679688 L 657.410156 401.664063 L 659.832031 396.320313 L 660.621094 392.261719 L 665.054688 390.96875 L 667.871094 391.769531 L 672.644531 391.761719 L 671.792969 388.691406 L 672.960938 387.742188 L 670.125 385.722656 L 665.722656 383.167969 L 660.214844 379.304688 L 660.039063 373.25 L 663.976563 372.175781 L 668.09375 370.417969 L 674.484375 366.863281 L 674.582031 363.519531 L 669.972656 360.289063 L 675.886719 354.910156 L 679.882813 355.546875 L 680.667969 360.886719 L 683.214844 364.691406 L 691.054688 364.292969 L 690.035156 356.8125 L 698.164063 350.265625 L 698.195313 349.363281 L 699.265625 344.523438 L 700.191406 344.992188 L 702.40625 343.132813 L 703.035156 343.03125 L 711.871094 344.417969 L 714.539063 348.339844 L 725.058594 356.550781 L 727.046875 363.296875 L 733.851563 365.082031 L 742.339844 363.597656 L 741.980469 360.890625 L 741.140625 358.5 L 745.765625 358.542969 L 747.5625 350.007813 L 765.367188 303.292969 L 759.609375 289.035156 L 764.886719 281.453125 L 762.027344 277.355469 L 759.386719 282.382813 L 754.265625 282.089844 L 745.140625 300.671875 L 740.761719 293.570313 L 731.171875 289.757813 L 729.667969 293.148438 L 721.3125 291.816406 L 704.554688 286.472656 L 699.84375 290.808594 L 693.972656 290.28125 L 687.140625 287.261719 L 692.523438 275.898438 L 697.078125 277.992188 L 704.933594 271.871094 L 712.921875 272.152344 L 710.878906 265.453125 L 719.410156 259.867188 L 719.664063 241.320313 L 719.191406 237.855469 L 713.285156 236.242188 L 716.230469 226.273438 L 718.089844 224.152344 L 731.699219 224.824219 L 733.585938 218.074219 L 740.335938 225.792969 L 745.070313 221.996094 L 752.191406 222.4375 L 747.953125 213.75 L 750.378906 212.53125 L 748.3125 196.210938 L 749.304688 189.449219 L 754.777344 191.324219 L 747.847656 182.679688 L 752.992188 180.328125 L 758.238281 184.261719 L 768.628906 180.625 L 779.640625 168.4375 L 790.394531 174.164063 L 797.191406 190.898438 L 803.386719 194.65625 L 803.085938 195.265625 L 796.957031 204.3125 L 807.324219 221.777344 L 794.457031 242.089844 L 792.308594 253.828125 L 798.574219 254.660156 L 799.703125 260.359375 L 809.257813 262.730469 L 812.960938 263.125 L 814.109375 268.324219 L 817.597656 267.589844 L 825.847656 266.90625 L 828.078125 276.804688 L 822.058594 317.164063 L 807.449219 314.117188 L 805.511719 319.710938 L 795.5 326.574219 L 795.195313 332.453125 L 802.195313 337.140625 L 798.65625 343.539063 L 803.800781 348.714844 L 804.660156 345.40625 L 811.296875 344.972656 L 816.175781 356.457031 L 824.574219 354.40625 L 830.054688 348.46875 L 838.113281 349.183594 L 840.328125 340 L 848.738281 338.535156 L 845.492188 331.644531 L 848.460938 329.070313 L 853.484375 331.152344 L 853.179688 340.117188 L 857.3125 341.46875 L 862.324219 336.160156 L 862.363281 348.574219 L 871.199219 346.238281 L 875.53125 340.949219 L 892.46875 339.066406 L 898.214844 347.410156 L 902.714844 346.765625 L 913.484375 348.710938 L 913.761719 355.480469 L 907.972656 364.230469 L 910.035156 380.035156 L 909.996094 380.207031 L 914.28125 393.710938 L 898.535156 399.132813 L 898.816406 426.707031 Z M 895.050781 441.203125 "/>
<path style="fill:none;stroke-width:1.125;stroke-linecap:round;stroke-linejoin:round;stroke:rgb(0%,0%,0%);stroke-opacity:1;stroke-miterlimit:10;" d="M 503.371094 565.261719 L 497.410156 564.050781 L 497.003906 558.230469 L 500.589844 559.226563 L 502.871094 550.765625 L 507.863281 552.96875 L 503.605469 542.273438 L 519.363281 538.546875 L 515.753906 534.371094 L 519.929688 528.105469 L 519.335938 519.261719 L 531.179688 524.417969 L 535.90625 520.660156 L 536.660156 520.351563 L 536.960938 520.550781 L 544.949219 515.003906 L 548.886719 514.773438 L 550.023438 514.800781 L 553.996094 515.125 L 556.539063 504.9375 L 554.429688 493.074219 L 551.96875 487.394531 L 550.871094 474.542969 L 556.921875 463.730469 L 563.679688 452.421875 L 584.421875 448.90625 L 581.734375 433.507813 L 584.996094 425.609375 L 578.496094 423.457031 L 578.550781 419.359375 L 578.566406 418.277344 L 578.832031 405.214844 L 581.015625 401.199219 L 585.9375 401.554688 L 585.453125 408.152344 L 599.84375 401.792969 L 610.046875 401.34375 L 618.105469 405.160156 L 628.355469 404.726563 L 639.273438 409.082031 L 659.578125 406.378906 L 660.527344 408.195313 L 661.867188 409.691406 L 665.226563 408.570313 L 667.164063 410.390625 L 667.214844 412.59375 L 666.660156 420.386719 L 664.285156 420.398438 L 663.273438 416.820313 L 653.824219 423.148438 L 658.113281 430.230469 L 666.898438 430.933594 L 664.253906 427.257813 L 671.75 425.003906 L 678.152344 430.960938 L 685.730469 421.160156 L 685.875 420.664063 L 686.054688 420.71875 L 686.273438 420.789063 L 689.242188 421.730469 L 690.492188 420.539063 L 700.84375 408.3125 L 705.449219 421.0625 L 705.492188 421.296875 L 707.917969 426.230469 L 706.894531 421.269531 L 706.871094 421.152344 L 706.269531 417.261719 L 714.039063 409.277344 L 714.675781 415.058594 L 719.886719 415.105469 L 719.515625 420.015625 L 719.257813 421.847656 L 718.875 426.5 L 715.246094 437.8125 L 710.746094 437.710938 L 702.074219 454.4375 L 704.28125 462.410156 L 701.949219 474.148438 L 694.71875 476.351563 L 681.234375 471.984375 L 677.84375 493.613281 L 672.066406 493.199219 L 649.363281 495.078125 L 644.453125 495.921875 L 642.265625 498.042969 L 643.886719 506.707031 L 645.449219 509.925781 L 645.792969 510.632813 L 649.714844 507.019531 L 652.785156 507.355469 L 653.71875 511.136719 L 654.851563 515.722656 L 656.851563 517.824219 L 657.867188 526.324219 L 654.109375 531.144531 L 627.375 540.113281 L 615.636719 541.949219 L 602.324219 544.988281 L 590.804688 546.324219 L 585.339844 547.101563 L 577.433594 550.511719 L 567.929688 553 L 564.363281 553.871094 L 562.980469 554.523438 L 555.277344 556 L 533.453125 562.148438 L 524.128906 566.03125 L 523.300781 566.527344 L 504.222656 581.089844 L 504.675781 579.773438 L 507.246094 576.933594 L 507.253906 576.738281 L 502.214844 570.539063 Z M 503.371094 565.261719 "/>
<path style="fill:none;stroke-width:1.125;stroke-linecap:round;stroke-linejoin:round;stroke:rgb(0%,0%,0%);stroke-opacity:1;stroke-miterlimit:10;" d="M 1003.050781 299.113281 L 1007.511719 295.5625 L 1008.527344 300.878906 L 1006.171875 301.5625 L 1007.871094 308.988281 L 998.144531 314.800781 L 997.507813 321.761719 L 995.8125 321.710938 L 989.050781 323.96875 L 983.339844 321.570313 L 979.257813 325.46875 L 968.804688 326.925781 L 966.378906 328.628906 L 966.773438 319.261719 L 963.496094 319.496094 L 963.074219 319.566406 L 962.707031 319.175781 L 962.363281 318.59375 L 962.652344 317.015625 L 962.785156 315.777344 L 963.160156 309.0625 L 962.628906 309.167969 L 955.636719 307.132813 L 952.183594 316.550781 L 947.449219 316.148438 L 948.472656 305.773438 L 941.917969 307.578125 L 940.5 297.765625 L 945.332031 296.601563 L 947.390625 286.761719 L 941.5625 283.644531 L 937.542969 287.601563 L 931.640625 286.339844 L 926.890625 300.914063 L 921.015625 300.394531 L 921.582031 289.445313 L 917.886719 287.058594 L 913.300781 288.457031 L 910.808594 297.695313 L 904.644531 294.28125 L 907.339844 273.40625 L 907.480469 272.996094 L 897.496094 268.152344 L 890.355469 279.402344 L 883.425781 278.140625 L 881.789063 271.535156 L 870.792969 271.054688 L 866.667969 273.242188 L 861.527344 266.824219 L 862.40625 258.859375 L 859.640625 256.445313 L 868.4375 249.480469 L 869.292969 239.023438 L 875.144531 236.609375 L 867.644531 232.367188 L 868.742188 220.851563 L 876.453125 216.9375 L 876.84375 221.800781 L 885.578125 227.320313 L 892.773438 222.714844 L 894.851563 215.5625 L 900.824219 212.84375 L 912.367188 196.367188 L 922.953125 193.035156 L 923.40625 179.269531 L 936.082031 179.804688 L 953.886719 175.207031 L 962.558594 171.472656 L 963.035156 187.601563 L 963.957031 181.191406 L 973.695313 184.226563 L 984.128906 180.164063 L 993.972656 185.402344 L 998.390625 176.941406 L 997.917969 180.792969 L 1001.066406 180.671875 L 1010.917969 171.945313 L 1012.21875 174.597656 L 1017.535156 172.773438 L 1022.0625 178.125 L 1020.671875 187.042969 L 1025.480469 188.75 L 1025.984375 216.015625 L 1033.390625 223.097656 L 1032.785156 229.035156 L 1042.285156 236.207031 L 1038.21875 244.453125 L 1030.734375 242.785156 L 1024.933594 252.535156 L 1019.378906 249.972656 L 1004.023438 256.496094 L 1006.371094 265.648438 L 1001.148438 266.726563 L 988.273438 265.695313 L 989.703125 275.957031 L 990.074219 282.320313 L 995.21875 286.230469 L 992.78125 291.714844 L 995.296875 300.339844 L 996.832031 304.015625 L 1000.121094 303.546875 L 1001.925781 295.820313 Z M 1024.832031 277.867188 L 1020.550781 279.214844 L 1017.621094 278.046875 L 1014.125 276.253906 L 1013.800781 275.914063 L 1013.734375 275.847656 L 1014.359375 266.707031 L 1008 265.8125 L 1008.339844 262.390625 L 1017.078125 264.875 L 1026.226563 264.292969 L 1027.6875 261.484375 L 1032.785156 267.324219 L 1035.582031 274.90625 L 1043.265625 274.480469 L 1047.492188 280.324219 L 1035.183594 285.851563 L 1030.339844 289.964844 L 1024.214844 286.144531 L 1021.445313 285.585938 Z M 1093.222656 223.035156 L 1084.976563 227.0625 L 1085.695313 232.652344 L 1081.144531 237.660156 L 1086.707031 240.441406 L 1079.050781 248.292969 L 1071.441406 253.371094 L 1059.015625 247.757813 L 1058.859375 242.789063 L 1051.992188 239.785156 L 1048.089844 233.296875 L 1051.96875 224.441406 L 1050.117188 216.15625 L 1055.535156 209.851563 L 1072.898438 214.617188 L 1079.214844 212.796875 L 1085.507813 217.441406 L 1090.570313 214.257813 L 1097.863281 215.546875 Z M 1093.222656 223.035156 "/>
<path style="fill:none;stroke-width:1.125;stroke-linecap:round;stroke-linejoin:round;stroke:rgb(0%,0%,0%);stroke-opacity:1;stroke-miterlimit:10;" d="M 1002.167969 422.394531 L 998.996094 436.109375 L 991.246094 435.1875 L 987.347656 434.273438 L 982.6875 435.027344 L 982.898438 424.5625 L 981.25 427.085938 L 975.476563 424.140625 L 969.359375 426.023438 L 969.015625 432.871094 L 960.691406 431.632813 L 960.171875 431.652344 L 959.753906 431.65625 L 958.613281 431.589844 L 959.050781 417.574219 L 946.25 422.488281 L 946.683594 431.59375 L 940.589844 439.554688 L 942.144531 446.726563 L 933.445313 444.824219 L 930.625 437.785156 L 928.488281 444.863281 L 921.933594 444.402344 L 921.730469 438.617188 L 912.011719 434.933594 L 902.335938 447.566406 L 895.050781 441.203125 L 898.816406 426.707031 L 898.535156 399.132813 L 914.28125 393.710938 L 909.996094 380.207031 L 910.035156 380.035156 L 907.972656 364.230469 L 913.761719 355.480469 L 913.484375 348.710938 L 902.714844 346.765625 L 900.652344 322.234375 L 904.789063 310.683594 L 909.824219 301.445313 L 908.730469 298.765625 L 900.339844 301.738281 L 900.203125 296.867188 L 904.644531 294.28125 L 910.808594 297.695313 L 913.300781 288.457031 L 917.886719 287.058594 L 921.582031 289.445313 L 921.015625 300.394531 L 926.890625 300.914063 L 931.640625 286.339844 L 937.542969 287.601563 L 941.5625 283.644531 L 947.390625 286.761719 L 945.332031 296.601563 L 940.5 297.765625 L 941.917969 307.578125 L 948.472656 305.773438 L 947.449219 316.148438 L 952.183594 316.550781 L 955.636719 307.132813 L 962.628906 309.167969 L 963.160156 309.0625 L 962.785156 315.777344 L 962.652344 317.015625 L 962.363281 318.59375 L 962.707031 319.175781 L 963.074219 319.566406 L 963.496094 319.496094 L 966.773438 319.261719 L 966.378906 328.628906 L 968.804688 326.925781 L 979.257813 325.46875 L 983.339844 321.570313 L 989.050781 323.96875 L 995.8125 321.710938 L 997.507813 321.761719 L 997.355469 325.75 L 1001.933594 324.984375 L 1005.046875 330.976563 L 1009.597656 334.210938 L 1014.550781 332.292969 L 1012.207031 330.082031 L 1024.472656 331.789063 L 1022.949219 347.390625 L 1028.164063 347.390625 L 1021.664063 373.738281 L 1021.195313 399.019531 L 1015.144531 418.332031 L 1007.640625 428.710938 Z M 1002.167969 422.394531 "/>
<path style="fill:none;stroke-width:1.125;stroke-linecap:round;stroke-linejoin:round;stroke:rgb(0%,0%,0%);stroke-opacity:1;stroke-miterlimit:10;" d="M 848.460938 329.070313 L 845.492188 331.644531 L 848.738281 338.535156 L 840.328125 340 L 838.113281 349.183594 L 830.054688 348.46875 L 824.574219 354.40625 L 816.175781 356.457031 L 811.296875 344.972656 L 804.660156 345.40625 L 803.800781 348.714844 L 798.65625 343.539063 L 802.195313 337.140625 L 795.195313 332.453125 L 795.5 326.574219 L 805.511719 319.710938 L 807.449219 314.117188 L 822.058594 317.164063 L 828.078125 276.804688 L 825.847656 266.90625 L 817.597656 267.589844 L 814.109375 268.324219 L 812.960938 263.125 L 809.257813 262.730469 L 799.703125 260.359375 L 798.574219 254.660156 L 792.308594 253.828125 L 794.457031 242.089844 L 807.324219 221.777344 L 810.574219 219.367188 L 828.871094 215.921875 L 832.011719 214.738281 L 842.414063 225.003906 L 847.75 223.242188 L 854.171875 226.371094 L 862.183594 222.433594 L 868.742188 220.851563 L 867.644531 232.367188 L 875.144531 236.609375 L 869.292969 239.023438 L 868.4375 249.480469 L 859.640625 256.445313 L 862.40625 258.859375 L 861.527344 266.824219 L 866.667969 273.242188 L 870.792969 271.054688 L 881.789063 271.535156 L 883.425781 278.140625 L 890.355469 279.402344 L 897.496094 268.152344 L 907.480469 272.996094 L 907.339844 273.40625 L 904.644531 294.28125 L 900.203125 296.867188 L 900.339844 301.738281 L 908.730469 298.765625 L 909.824219 301.445313 L 904.789063 310.683594 L 900.652344 322.234375 L 902.714844 346.765625 L 898.214844 347.410156 L 892.46875 339.066406 L 875.53125 340.949219 L 871.199219 346.238281 L 862.363281 348.574219 L 862.324219 336.160156 L 857.3125 341.46875 L 853.179688 340.117188 L 853.484375 331.152344 Z M 745.070313 221.996094 L 740.335938 225.792969 L 733.585938 218.074219 L 731.699219 224.824219 L 718.089844 224.152344 L 719.597656 216.289063 L 713.296875 216.195313 L 712.730469 208.855469 L 717.457031 203.863281 L 711.230469 199.371094 L 706.863281 169.578125 L 709.652344 166.074219 L 745.652344 160.9375 L 745.890625 160.816406 L 748.0625 162.445313 L 745.761719 163.75 L 745.699219 163.777344 L 745.21875 165.105469 L 745.636719 165.164063 L 745.769531 165.183594 L 763.230469 156.425781 L 764.375 156.148438 L 764.601563 156.058594 L 777.90625 152.480469 L 784.625 142.554688 L 789.953125 144.726563 L 779.640625 168.4375 L 768.628906 180.625 L 758.238281 184.261719 L 752.992188 180.328125 L 747.847656 182.679688 L 754.777344 191.324219 L 749.304688 189.449219 L 748.3125 196.210938 L 750.378906 212.53125 L 747.953125 213.75 L 752.191406 222.4375 Z M 745.070313 221.996094 "/>
<path style="fill:none;stroke-width:1.125;stroke-linecap:round;stroke-linejoin:round;stroke:rgb(0%,0%,0%);stroke-opacity:1;stroke-miterlimit:10;" d="M 842.414063 225.003906 L 832.011719 214.738281 L 828.871094 215.921875 L 810.574219 219.367188 L 807.324219 221.777344 L 796.957031 204.3125 L 803.085938 195.265625 L 803.386719 194.65625 L 797.191406 190.898438 L 790.394531 174.164063 L 779.640625 168.4375 L 789.953125 144.726563 L 810.511719 137.011719 L 814.632813 140.367188 L 822.867188 138.390625 L 834.941406 131.140625 L 840.425781 132.585938 L 857.820313 131.308594 L 865.890625 125.402344 L 876.050781 124.957031 L 890.449219 114.902344 L 900.484375 110.023438 L 911.667969 110.808594 L 911.972656 110.792969 L 932.453125 114.851563 L 929.285156 118.863281 L 923.601563 124.375 L 917.921875 128.621094 L 914.25 144.203125 L 904.839844 149.230469 L 908.160156 153.160156 L 908.703125 156.621094 L 908.851563 159.066406 L 907.550781 166.058594 L 914.367188 164.484375 L 917.691406 163.34375 L 917.660156 165.898438 L 918.992188 172.707031 L 923.539063 172.707031 L 923.40625 179.269531 L 922.953125 193.035156 L 912.367188 196.367188 L 900.824219 212.84375 L 894.851563 215.5625 L 892.773438 222.714844 L 885.578125 227.320313 L 876.84375 221.800781 L 876.453125 216.9375 L 868.742188 220.851563 L 862.183594 222.433594 L 854.171875 226.371094 L 847.75 223.242188 Z M 842.414063 225.003906 "/>
<path style="fill:none;stroke-width:1.125;stroke-linecap:round;stroke-linejoin:round;stroke:rgb(0%,0%,0%);stroke-opacity:1;stroke-miterlimit:10;" d="M 1079.707031 207.542969 L 1078.664063 209.304688 L 1078.660156 209.410156 L 1079.214844 212.796875 L 1072.898438 214.617188 L 1055.535156 209.851563 L 1050.117188 216.15625 L 1051.96875 224.441406 L 1048.089844 233.296875 L 1045.121094 237.898438 L 1042.285156 236.207031 L 1032.785156 229.035156 L 1033.390625 223.097656 L 1025.984375 216.015625 L 1025.480469 188.75 L 1020.671875 187.042969 L 1022.0625 178.125 L 1017.535156 172.773438 L 1012.21875 174.597656 L 1010.917969 171.945313 L 1001.066406 180.671875 L 997.917969 180.792969 L 998.390625 176.941406 L 993.972656 185.402344 L 984.128906 180.164063 L 973.695313 184.226563 L 963.957031 181.191406 L 963.035156 187.601563 L 962.558594 171.472656 L 962.925781 171.117188 L 966.378906 168.496094 L 966.582031 168.335938 L 970.480469 164.179688 L 970.835938 163.730469 L 972.804688 166.417969 L 986.027344 164.242188 L 1004.523438 150.449219 L 1008.03125 143.125 L 1005.574219 134.855469 L 1009.324219 126.542969 L 1011.371094 125.957031 L 1016.09375 124.066406 L 1015.324219 115.324219 L 1023.398438 110.503906 L 1038.402344 112.195313 L 1043.71875 117.707031 L 1044.714844 117.050781 L 1044.746094 117.023438 L 1061.5625 114.644531 L 1062.324219 115 L 1069.21875 115.117188 L 1071.339844 114.550781 L 1073.695313 112.300781 L 1082.160156 116.722656 L 1092.683594 114.960938 L 1108.402344 113.921875 L 1106.949219 129.3125 L 1108.742188 139.261719 L 1115.699219 147.785156 L 1121.710938 149.707031 L 1106.878906 151.78125 L 1101.644531 158.425781 L 1094.601563 150.0625 L 1091.140625 156.359375 L 1096.039063 159.613281 L 1079.472656 166.667969 L 1070.777344 166.789063 L 1067.027344 172.933594 L 1064.382813 170.496094 L 1059.8125 170.382813 L 1061.902344 172.148438 L 1066.5 193.339844 L 1077.007813 194.746094 L 1075.683594 200.410156 Z M 1079.707031 207.542969 "/>
<path style="fill:none;stroke-width:1.125;stroke-linecap:round;stroke-linejoin:round;stroke:rgb(0%,0%,0%);stroke-opacity:1;stroke-miterlimit:10;" d="M 1034.746094 340.652344 L 1031.742188 347.140625 L 1028.164063 347.390625 L 1022.949219 347.390625 L 1024.472656 331.789063 L 1012.207031 330.082031 L 1014.550781 332.292969 L 1009.597656 334.210938 L 1005.046875 330.976563 L 1001.933594 324.984375 L 997.355469 325.75 L 997.507813 321.761719 L 998.144531 314.800781 L 1007.871094 308.988281 L 1006.171875 301.5625 L 1008.527344 300.878906 L 1007.511719 295.5625 L 1003.050781 299.113281 L 1001.925781 295.820313 L 1000.121094 303.546875 L 996.832031 304.015625 L 995.296875 300.339844 L 992.78125 291.714844 L 995.21875 286.230469 L 990.074219 282.320313 L 989.703125 275.957031 L 988.273438 265.695313 L 1001.148438 266.726563 L 1006.371094 265.648438 L 1004.023438 256.496094 L 1019.378906 249.972656 L 1024.933594 252.535156 L 1030.734375 242.785156 L 1038.21875 244.453125 L 1042.285156 236.207031 L 1045.121094 237.898438 L 1048.089844 233.296875 L 1051.992188 239.785156 L 1058.859375 242.789063 L 1059.015625 247.757813 L 1071.441406 253.371094 L 1070.117188 264.894531 L 1074.882813 267.328125 L 1072.660156 277.496094 L 1072.671875 277.59375 L 1072.625 277.597656 L 1072.527344 277.464844 L 1072.492188 277.476563 L 1072.472656 277.628906 L 1074.574219 282.398438 L 1068.238281 309.992188 L 1059.195313 313.46875 L 1058.875 310.277344 L 1050.9375 308.542969 L 1045.871094 310.664063 L 1037.691406 321.054688 L 1042.027344 333.191406 L 1034.292969 333 Z M 1030.339844 289.964844 L 1035.183594 285.851563 L 1047.492188 280.324219 L 1043.265625 274.480469 L 1035.582031 274.90625 L 1032.785156 267.324219 L 1027.6875 261.484375 L 1026.226563 264.292969 L 1017.078125 264.875 L 1008.339844 262.390625 L 1008 265.8125 L 1014.359375 266.707031 L 1013.734375 275.847656 L 1013.800781 275.914063 L 1014.125 276.253906 L 1017.621094 278.046875 L 1020.550781 279.214844 L 1024.832031 277.867188 L 1021.445313 285.585938 L 1024.214844 286.144531 Z M 1030.339844 289.964844 "/>
<path style="fill:none;stroke-width:1.125;stroke-linecap:round;stroke-linejoin:round;stroke:rgb(0%,0%,0%);stroke-opacity:1;stroke-miterlimit:10;" d="M 763.449219 515.503906 L 768.003906 518.1875 L 767.890625 523.082031 L 772.710938 520.65625 L 773.644531 523.832031 L 761.613281 524.648438 L 750.253906 526.917969 L 737.191406 527.851563 L 736.53125 521.007813 L 733.15625 512.984375 L 734.648438 493.539063 L 731.546875 485.554688 L 729.25 481.390625 L 723.503906 480.496094 L 722.085938 468.707031 L 718.152344 469.015625 L 723.363281 440.8125 L 732.066406 439.433594 L 729.488281 428.84375 L 735.097656 412.15625 L 738.265625 413.726563 L 738.054688 421.785156 L 738.128906 422.046875 L 741.023438 433.042969 L 747.167969 435.734375 L 753.054688 423.148438 L 753.621094 421.992188 L 754.054688 417.011719 L 756.914063 416.546875 L 757.699219 422.25 L 759.023438 425.078125 L 769 424.65625 L 767.902344 433.207031 L 770.304688 432.242188 L 770.398438 432.285156 L 777.9375 422.742188 L 778.132813 422.503906 L 783.703125 416.296875 L 786.789063 417.480469 L 786.953125 421.074219 L 787.863281 422.996094 L 788.488281 423.609375 L 789.285156 421.988281 L 790.933594 423.203125 L 793.484375 425.839844 L 800.804688 423.558594 L 802.234375 423.203125 L 805.980469 422.300781 L 805.601563 423.414063 L 806.265625 437.324219 L 805.4375 439.417969 L 800.097656 444.152344 L 803.230469 456.585938 L 792.730469 453.253906 L 786.738281 457.792969 L 790.164063 462.488281 L 790.152344 462.589844 L 790.523438 478.285156 L 786.027344 480.648438 L 785.976563 477.832031 L 782.847656 478.367188 L 783.753906 483.566406 L 784.5625 485.933594 L 778.789063 491.886719 L 774.957031 486.546875 L 771.527344 484.144531 L 771.570313 487.171875 L 773.539063 488.507813 L 773.867188 494.046875 L 774.863281 494.992188 L 774.1875 495.136719 L 771.769531 495.941406 L 768.871094 496.894531 L 762.585938 498.644531 L 760.699219 499.691406 L 757.136719 502.644531 L 754.785156 503.265625 L 744.328125 504.519531 L 744.355469 504.648438 L 745.660156 509.585938 L 754.734375 509.207031 L 756.304688 509.242188 L 754.507813 511.199219 L 757.832031 512.316406 L 761.601563 516.476563 Z M 763.449219 515.503906 "/>
<path style="fill:none;stroke-width:1.125;stroke-linecap:round;stroke-linejoin:round;stroke:rgb(0%,0%,0%);stroke-opacity:1;stroke-miterlimit:10;" d="M 946.359375 152.882813 L 946.324219 153.816406 L 943.867188 157.890625 L 940.386719 159.871094 L 937.011719 161.699219 L 933.507813 158.816406 L 931.96875 157.863281 L 929.449219 154.648438 L 927.335938 149.75 L 926.25 144.160156 L 917.8125 145.304688 L 915.175781 147.453125 L 914.25 144.203125 L 917.921875 128.621094 L 923.601563 124.375 L 929.285156 118.863281 L 932.453125 114.851563 L 911.972656 110.792969 L 911.667969 110.808594 L 900.484375 110.023438 L 890.449219 114.902344 L 890.023438 108.660156 L 910.21875 106.800781 L 911.878906 104.039063 L 911.921875 103.914063 L 921.660156 103.355469 L 923.277344 94.78125 L 929.488281 94.464844 L 935.816406 86.378906 L 942.773438 87.175781 L 944.027344 83.289063 L 950.667969 80.800781 L 955.316406 84.867188 L 958.308594 87.308594 L 962.890625 89.421875 L 968.308594 89.199219 L 968.53125 89.316406 L 970.46875 89.171875 L 978.683594 89.144531 L 984.484375 90.574219 L 980.917969 111.089844 L 979.429688 123.109375 L 978.582031 124.894531 L 973.109375 125.195313 L 972.300781 130.621094 L 967.566406 127.960938 L 962.90625 127.601563 L 962.96875 136.460938 L 962.996094 140.003906 L 962.996094 142.859375 L 962.363281 144.511719 L 954.332031 147.570313 L 950.058594 147.957031 L 945.960938 148.265625 Z M 945.960938 148.265625 L 946.039063 143.203125 L 950.578125 138.644531 L 951.097656 138.078125 L 953.371094 134.628906 L 950.710938 130.242188 L 944.929688 133.96875 L 941.667969 136.0625 L 940.378906 143.128906 L 939.894531 147.363281 Z M 923.042969 139.914063 L 926.359375 140.222656 L 929.835938 137.625 L 933.449219 135.867188 L 930.449219 132.394531 L 924.53125 131.882813 L 921.746094 131.941406 L 919.644531 139.070313 Z M 923.042969 139.914063 "/>
<path style="fill:none;stroke-width:1.125;stroke-linecap:round;stroke-linejoin:round;stroke:rgb(0%,0%,0%);stroke-opacity:1;stroke-miterlimit:10;" d="M 661.035156 518.054688 L 666.210938 523.984375 L 668.308594 530.550781 L 654.109375 531.144531 L 657.867188 526.324219 L 656.851563 517.824219 Z M 668.378906 529.097656 L 667.566406 525.847656 L 666.273438 521.347656 L 662.339844 517.933594 L 656.03125 516.070313 L 654.851563 515.722656 L 653.71875 511.136719 L 652.785156 507.355469 L 649.714844 507.019531 L 645.792969 510.632813 L 645.449219 509.925781 L 643.886719 506.707031 L 642.265625 498.042969 L 644.453125 495.921875 L 649.363281 495.078125 L 672.066406 493.199219 L 677.84375 493.613281 L 681.234375 471.984375 L 694.71875 476.351563 L 701.949219 474.148438 L 704.28125 462.410156 L 702.074219 454.4375 L 710.746094 437.710938 L 715.246094 437.8125 L 718.875 426.5 L 724.585938 426.890625 L 727.894531 427.832031 L 730.046875 421.863281 L 730.226563 421.460938 L 735.097656 412.15625 L 729.488281 428.84375 L 732.066406 439.433594 L 723.363281 440.8125 L 718.152344 469.015625 L 722.085938 468.707031 L 723.503906 480.496094 L 729.25 481.390625 L 731.546875 485.554688 L 734.648438 493.539063 L 733.15625 512.984375 L 728.199219 515.421875 L 724.363281 513.027344 L 724.480469 509.113281 L 712.109375 510.738281 L 708.796875 510.6875 L 706.34375 508.339844 L 699.757813 508.851563 L 698.75 508.429688 L 693.121094 504.832031 L 689.082031 502.925781 L 689.261719 501.617188 L 682.847656 503.476563 L 672.683594 505.191406 L 671.9375 509.015625 L 672.230469 514.515625 L 669.457031 514.367188 L 670.371094 521.097656 L 674.90625 522.183594 L 671.640625 525.550781 L 671.347656 528 Z M 697.539063 511.925781 L 699.617188 508.976563 L 702.433594 509.773438 L 699.769531 514.78125 L 704.535156 514.785156 L 704.167969 515.730469 L 696.558594 519.847656 L 694.433594 517.953125 Z M 697.539063 511.925781 "/>
<path style="fill:none;stroke-width:1.125;stroke-linecap:round;stroke-linejoin:round;stroke:rgb(0%,0%,0%);stroke-opacity:1;stroke-miterlimit:10;" d="M 855.207031 449.691406 L 856.066406 449.589844 L 855.527344 451.496094 L 854.355469 451.570313 L 853.640625 455.601563 L 854.230469 456.515625 L 859.394531 458.390625 L 860.636719 458.992188 L 858.382813 464.3125 L 859.8125 465.859375 L 862.097656 468.332031 L 861.632813 468.671875 L 859.117188 470.511719 L 864.035156 476.851563 L 866.59375 487.996094 L 866.335938 489.9375 L 862.679688 499.945313 L 854.78125 502.007813 L 842.832031 505.246094 L 836.820313 506.804688 L 830.097656 509.445313 L 826.617188 505.113281 L 822.523438 503.3125 L 817.164063 503.183594 L 815.335938 500.296875 L 815.136719 500.28125 L 812.621094 497.703125 L 813.210938 496.234375 L 813.128906 494.40625 L 809.65625 487.1875 L 810.136719 477.4375 L 804.417969 472.761719 L 802.039063 463.027344 L 803.230469 456.585938 L 800.097656 444.152344 L 805.4375 439.417969 L 821.871094 453.671875 Z M 855.207031 449.691406 "/>
<path style="fill:none;stroke-width:1.125;stroke-linecap:round;stroke-linejoin:round;stroke:rgb(0%,0%,0%);stroke-opacity:1;stroke-miterlimit:10;" d="M 943.867188 157.890625 L 946.324219 153.816406 L 946.359375 152.882813 L 945.960938 148.265625 L 950.058594 147.957031 L 954.332031 147.570313 L 962.363281 144.511719 L 962.996094 142.859375 L 962.996094 140.003906 L 962.96875 136.460938 L 962.90625 127.601563 L 967.566406 127.960938 L 972.300781 130.621094 L 973.109375 125.195313 L 978.582031 124.894531 L 979.429688 123.109375 L 980.917969 111.089844 L 991.570313 113.355469 L 1014.835938 115.667969 L 1015.324219 115.324219 L 1016.09375 124.066406 L 1011.371094 125.957031 L 1009.324219 126.542969 L 1005.574219 134.855469 L 1008.03125 143.125 L 1004.523438 150.449219 L 986.027344 164.242188 L 972.804688 166.417969 L 970.835938 163.730469 L 973.445313 161.109375 L 973.519531 161.003906 L 975.011719 158.886719 L 973.203125 146.484375 L 971.207031 147.460938 L 964.09375 145.738281 L 963.011719 144.234375 L 963 148.246094 L 963.003906 150.890625 L 962.976563 154.605469 L 962.933594 159.070313 L 962.925781 171.117188 L 962.558594 171.472656 L 953.886719 175.207031 L 936.082031 179.804688 L 934.925781 175.429688 L 937.566406 166.898438 L 937.011719 161.699219 L 940.386719 159.871094 Z M 912.773438 149.414063 L 908.160156 153.160156 L 904.839844 149.230469 L 914.25 144.203125 L 915.175781 147.453125 L 915.136719 147.484375 Z M 919.644531 139.070313 L 921.746094 131.941406 L 924.53125 131.882813 L 930.449219 132.394531 L 933.449219 135.867188 L 929.835938 137.625 L 926.359375 140.222656 L 923.042969 139.914063 Z M 919.644531 139.070313 "/>
<path style="fill:none;stroke-width:1.125;stroke-linecap:round;stroke-linejoin:round;stroke:rgb(0%,0%,0%);stroke-opacity:1;stroke-miterlimit:10;" d="M 881.179688 493.292969 L 881.550781 493.363281 L 885.339844 492.90625 L 893.089844 493.804688 L 895.492188 500.539063 L 871.652344 497.953125 L 862.679688 499.945313 L 866.335938 489.9375 L 866.59375 487.996094 L 866.527344 489.890625 L 870.640625 492.410156 L 867.046875 494.769531 Z M 869.515625 489.085938 L 865.425781 481.167969 L 865.175781 474.152344 L 861.550781 470.921875 L 862.847656 468.4375 L 858.957031 464.539063 L 861.046875 459.113281 L 858.226563 456.507813 L 856.039063 455.765625 L 854.230469 456.515625 L 853.640625 455.601563 L 854.355469 451.570313 L 855.527344 451.496094 L 873.871094 453.035156 L 888.929688 454.375 L 887.109375 443.488281 L 889.917969 443.066406 L 894.808594 444.175781 L 895.195313 452.164063 L 897.902344 452.566406 L 901.9375 454.84375 L 907.363281 469.722656 L 907.820313 470.367188 L 909.160156 472.007813 L 909.226563 472.183594 L 909.351563 472.507813 L 912.625 478.238281 L 914.960938 482.890625 L 917.214844 486.867188 L 917.398438 487.21875 L 917.664063 487.691406 L 919.75 490.410156 L 920.269531 497.019531 L 910.089844 495.703125 L 903.28125 496.546875 L 897.816406 496.371094 L 897.8125 495.335938 L 903.804688 494.371094 L 897.664063 493.1875 L 892.402344 492.699219 L 882.839844 491.828125 L 874.457031 492.507813 Z M 869.515625 489.085938 "/>
<path style="fill:none;stroke-width:1.125;stroke-linecap:round;stroke-linejoin:round;stroke:rgb(0%,0%,0%);stroke-opacity:1;stroke-miterlimit:10;" d="M 779.285156 508.691406 L 774.175781 509.175781 L 774.292969 500.167969 L 774.1875 495.136719 L 774.863281 494.992188 L 773.867188 494.046875 L 773.539063 488.507813 L 771.570313 487.171875 L 771.527344 484.144531 L 774.957031 486.546875 L 778.789063 491.886719 L 784.5625 485.933594 L 783.753906 483.566406 L 782.847656 478.367188 L 785.976563 477.832031 L 786.027344 480.648438 L 790.523438 478.285156 L 790.152344 462.589844 L 790.164063 462.488281 L 786.738281 457.792969 L 792.730469 453.253906 L 803.230469 456.585938 L 802.039063 463.027344 L 804.417969 472.761719 L 810.136719 477.4375 L 809.65625 487.1875 L 813.128906 494.40625 L 813.210938 496.234375 L 812.621094 497.703125 L 815.136719 500.28125 L 815.335938 500.296875 L 817.164063 503.183594 L 813.15625 504.261719 L 806.476563 506.0625 L 805.878906 506.230469 L 802.101563 507.316406 L 799.160156 507.914063 L 797.773438 507.980469 L 797.429688 507.996094 L 793.996094 508.046875 L 787.914063 508.089844 L 782.300781 508.402344 L 780.910156 508.535156 Z M 779.285156 508.691406 "/>
<path style="fill:none;stroke-width:1.125;stroke-linecap:round;stroke-linejoin:round;stroke:rgb(0%,0%,0%);stroke-opacity:1;stroke-miterlimit:10;" d="M 706.34375 508.339844 L 708.796875 510.6875 L 712.109375 510.738281 L 724.480469 509.113281 L 724.363281 513.027344 L 728.199219 515.421875 L 733.15625 512.984375 L 736.53125 521.007813 L 737.191406 527.851563 L 719.691406 527.363281 L 712.921875 527.179688 L 704.5 527.667969 L 695.078125 527.617188 L 683.21875 528.238281 L 677.308594 528.273438 L 671.347656 528 L 671.640625 525.550781 L 674.90625 522.183594 L 670.371094 521.097656 L 669.457031 514.367188 L 672.230469 514.515625 L 671.9375 509.015625 L 672.683594 505.191406 L 682.847656 503.476563 L 689.261719 501.617188 L 689.082031 502.925781 L 693.121094 504.832031 L 698.75 508.429688 L 699.757813 508.851563 Z M 694.433594 517.953125 L 696.558594 519.847656 L 704.167969 515.730469 L 704.535156 514.785156 L 699.769531 514.78125 L 702.433594 509.773438 L 699.617188 508.976563 L 697.539063 511.925781 Z M 694.433594 517.953125 "/>
<path style="fill:none;stroke-width:1.125;stroke-linecap:round;stroke-linejoin:round;stroke:rgb(0%,0%,0%);stroke-opacity:1;stroke-miterlimit:10;" d="M 780.910156 508.535156 L 782.300781 508.402344 L 787.914063 508.089844 L 793.996094 508.046875 L 797.429688 507.996094 L 797.773438 507.980469 L 799.160156 507.914063 L 802.101563 507.316406 L 805.878906 506.230469 L 806.476563 506.0625 L 813.15625 504.261719 L 817.164063 503.183594 L 822.523438 503.3125 L 826.617188 505.113281 L 830.097656 509.445313 L 825.214844 511.734375 L 808.960938 517 L 794.898438 520.941406 L 787.046875 522.640625 L 773.644531 523.832031 L 772.710938 520.65625 L 767.890625 523.082031 L 768.003906 518.1875 L 763.449219 515.503906 L 761.601563 516.476563 L 757.832031 512.316406 L 754.507813 511.199219 L 756.304688 509.242188 L 754.734375 509.207031 L 745.660156 509.585938 L 744.355469 504.648438 L 744.328125 504.519531 L 754.785156 503.265625 L 757.136719 502.644531 L 760.699219 499.691406 L 762.585938 498.644531 L 768.871094 496.894531 L 771.769531 495.941406 L 774.1875 495.136719 L 774.292969 500.167969 L 774.175781 509.175781 L 779.285156 508.691406 Z M 780.910156 508.535156 "/>
<path style="fill:none;stroke-width:1.125;stroke-linecap:round;stroke-linejoin:round;stroke:rgb(0%,0%,0%);stroke-opacity:1;stroke-miterlimit:10;" d="M 918.992188 172.707031 L 917.660156 165.898438 L 917.691406 163.34375 L 914.367188 164.484375 L 907.550781 166.058594 L 908.851563 159.066406 L 908.703125 156.621094 L 908.160156 153.160156 L 912.773438 149.414063 L 915.136719 147.484375 L 915.175781 147.453125 L 917.8125 145.304688 L 926.25 144.160156 L 927.335938 149.75 L 929.449219 154.648438 L 931.96875 157.863281 L 933.507813 158.816406 L 937.011719 161.699219 L 937.566406 166.898438 L 934.925781 175.429688 L 936.082031 179.804688 L 923.40625 179.269531 L 923.539063 172.707031 Z M 962.933594 159.070313 L 962.976563 154.605469 L 963.003906 150.890625 L 963 148.246094 L 963.011719 144.234375 L 964.09375 145.738281 L 971.207031 147.460938 L 973.203125 146.484375 L 975.011719 158.886719 L 973.519531 161.003906 L 973.445313 161.109375 L 970.835938 163.730469 L 970.480469 164.179688 L 966.582031 168.335938 L 966.378906 168.496094 L 962.925781 171.117188 Z M 940.378906 143.128906 L 941.667969 136.0625 L 944.929688 133.96875 L 950.710938 130.242188 L 953.371094 134.628906 L 951.097656 138.078125 L 950.578125 138.644531 L 946.039063 143.203125 L 945.960938 148.265625 L 939.894531 147.363281 Z M 940.378906 143.128906 "/>
</g>
</svg>
